<?xml version="1.0" standalone="no"?>
<!DOCTYPE svg PUBLIC "-//W3C//DTD SVG 20010904//EN"
 "http://www.w3.org/TR/2001/REC-SVG-20010904/DTD/svg10.dtd">
<svg version="1.0" xmlns="http://www.w3.org/2000/svg"
 width="1200.000000pt" height="675.000000pt" viewBox="0 0 1200.000000 675.000000"
 preserveAspectRatio="xMidYMid meet">

<g transform="translate(0.000000,675.000000) scale(0.100000,-0.100000)"
fill="#ffffff" stroke="none">
<path d="M0 3375 l0 -3375 6000 0 6000 0 0 3375 0 3375 -6000 0 -6000 0 0
-3375z m5963 1135 c14 -33 32 -60 39 -60 8 0 31 9 53 20 21 11 53 24 71 30 18
6 38 18 44 26 7 7 19 14 28 14 8 0 -4 -14 -27 -30 -23 -17 -47 -28 -54 -24 -7
4 -9 4 -5 -1 4 -4 -10 -28 -32 -52 -88 -95 -140 -214 -140 -320 l0 -56 68 5
c169 12 346 188 388 386 l14 67 -5 -70 c-5 -73 -9 -97 -20 -130 -5 -14 -4 -16
3 -7 7 11 12 7 20 -17 6 -18 9 -38 6 -45 -3 -8 22 -42 60 -81 60 -62 68 -66
103 -63 35 3 38 1 41 -23 2 -20 14 -32 50 -49 64 -31 124 -79 116 -92 -4 -6
-3 -8 3 -5 6 4 25 -12 42 -33 18 -22 36 -38 41 -35 4 3 6 -3 3 -13 -5 -21 40
-71 88 -98 19 -10 41 -24 49 -30 8 -7 40 -15 70 -18 30 -3 100 -15 155 -27 55
-11 107 -21 115 -21 23 1 330 -55 570 -104 41 -9 86 -17 100 -19 14 -2 54 -11
90 -20 36 -9 90 -19 120 -22 30 -3 60 -9 65 -13 6 -4 33 -12 60 -18 163 -36
281 -66 285 -72 3 -4 21 -11 40 -14 74 -15 206 -47 225 -56 11 -4 29 -11 40
-13 11 -3 54 -15 95 -27 41 -12 82 -23 90 -25 118 -26 275 -73 340 -100 30
-13 72 -26 93 -30 20 -3 37 -10 37 -15 0 -6 10 -10 23 -10 12 -1 60 -14 107
-31 47 -17 106 -37 133 -44 26 -8 52 -17 57 -20 5 -3 36 -13 67 -21 32 -8 72
-21 90 -29 17 -8 36 -15 43 -15 7 0 24 -6 38 -14 55 -28 226 -86 253 -86 9 0
19 -6 22 -14 3 -8 32 -22 64 -31 32 -9 76 -24 98 -34 41 -18 101 -40 195 -72
30 -11 79 -31 108 -44 29 -14 59 -25 67 -25 7 0 17 -4 20 -10 3 -5 18 -10 33
-11 24 0 25 -1 7 -9 -11 -5 -14 -9 -7 -9 8 -1 46 -16 85 -35 40 -19 86 -40
102 -47 49 -20 3 -23 -73 -5 -37 9 -92 18 -122 21 -54 4 -219 43 -435 103
-128 35 -337 83 -342 78 -2 -1 25 -12 59 -24 117 -38 228 -78 235 -85 17 -18
-84 1 -457 87 -107 24 -218 44 -246 45 -27 0 -68 7 -91 15 -22 8 -71 17 -109
20 -45 3 -60 2 -44 -3 30 -11 14 -13 -29 -5 -17 4 -28 10 -25 15 3 5 -1 6 -9
3 -15 -6 -162 23 -189 37 -9 5 -49 11 -88 14 -39 2 -75 7 -80 10 -5 3 -19 0
-32 -5 -18 -8 -30 -8 -50 3 -25 13 -102 12 -94 -2 6 -10 -67 -11 -80 0 -6 5
-19 7 -27 3 -9 -3 -30 1 -48 10 -28 14 -32 14 -47 0 -14 -15 -17 -15 -27 0 -8
10 -27 16 -49 16 -35 0 -53 20 -18 20 13 1 11 4 -8 15 -14 8 -32 12 -41 9 -9
-2 -58 -8 -110 -13 -68 -6 -98 -6 -108 3 -11 8 -15 8 -18 0 -3 -8 -18 -10 -43
-7 -24 3 -46 1 -54 -6 -19 -16 -83 -4 -95 17 -7 12 -12 13 -23 5 -13 -11 -58
-10 -78 2 -6 4 -17 1 -25 -5 -12 -10 -15 -9 -15 4 0 27 -18 18 -22 -11 -2 -20
-10 -29 -31 -34 -36 -10 -228 -30 -322 -34 -124 -5 -123 -5 -100 -14 11 -5 81
-16 155 -25 74 -10 155 -22 180 -28 25 -6 124 -12 221 -14 97 -1 186 -5 197
-8 29 -10 37 -37 12 -43 -34 -9 -22 -20 28 -28 26 -3 58 -9 71 -12 24 -6 24
-6 -5 -18 l-29 -12 40 -8 c22 -4 45 -11 50 -15 11 -9 220 -64 340 -90 44 -10
121 -30 170 -45 50 -15 99 -29 110 -32 70 -17 145 -48 141 -59 -2 -6 3 -11 12
-10 9 0 18 -7 20 -18 3 -16 -1 -17 -39 -11 -24 4 -50 11 -59 16 -18 11 -241
40 -252 33 -14 -9 -9 -24 7 -18 14 6 125 -41 125 -52 0 -4 -30 -3 -67 1 -47 5
-65 4 -58 -4 6 -5 58 -11 118 -12 95 -2 109 0 121 16 12 17 18 18 53 7 22 -7
52 -12 66 -12 50 0 37 -19 -15 -22 l-53 -3 35 -23 35 -24 -70 6 c-135 12 -270
26 -300 31 -58 10 -278 6 -288 -4 -8 -8 -7 -11 1 -11 7 0 12 -4 12 -9 0 -4
-18 -3 -39 2 -22 6 -38 14 -35 19 3 4 0 8 -5 8 -6 0 -11 -4 -11 -10 0 -5 -22
-10 -49 -10 -66 0 -73 -15 -13 -30 26 -6 58 -17 72 -25 50 -28 -57 -17 -156
17 -51 17 -97 28 -101 24 -4 -4 -1 -11 6 -15 7 -5 10 -14 7 -20 -9 -14 -126
-14 -163 0 -36 14 -109 13 -145 -2 -27 -11 -28 -13 -12 -30 10 -11 23 -19 31
-19 8 0 12 -4 9 -9 -3 -5 3 -20 14 -34 11 -14 18 -31 15 -39 -3 -8 7 -23 25
-36 17 -13 30 -18 30 -11 0 8 6 7 18 -3 9 -9 27 -19 39 -22 33 -10 103 -76
103 -97 0 -9 6 -20 13 -23 10 -5 10 -7 0 -12 -20 -9 -15 -24 6 -24 11 0 23 -5
27 -12 5 -8 -5 -9 -36 -5 -31 4 -47 1 -58 -9 -8 -9 -22 -12 -31 -8 -9 3 -30 8
-47 9 -18 2 -41 8 -52 14 -12 6 -38 11 -59 11 -21 0 -49 7 -62 16 -22 16 -22
17 -5 27 15 9 8 13 -41 23 -74 14 -103 4 -57 -20 39 -20 39 -24 7 -59 -33 -35
-51 -34 -109 4 -49 33 -96 43 -253 55 -108 9 -157 -9 -95 -33 26 -10 26 -11 4
-12 -24 -1 -56 22 -45 33 4 3 -1 6 -10 6 -9 0 -17 -4 -17 -9 0 -5 -17 -4 -37
2 -44 13 -277 16 -341 5 -24 -4 -83 -10 -131 -12 -92 -5 -177 -22 -187 -38 -8
-13 26 -48 47 -48 17 0 79 -31 109 -55 16 -14 157 -27 190 -18 11 3 20 11 20
18 0 26 191 43 225 21 11 -8 45 -16 75 -19 30 -3 62 -6 70 -8 10 -3 16 5 18
24 3 22 10 29 33 34 16 3 29 12 29 19 0 17 1 17 34 4 15 -5 26 -17 26 -28 0
-20 28 -37 77 -47 33 -6 106 -62 98 -75 -4 -6 -47 -10 -149 -12 -28 -1 -28 -1
-10 -15 10 -8 19 -19 19 -26 0 -7 12 -12 28 -13 15 -1 30 -3 33 -6 9 -10 -27
-38 -48 -38 -12 0 -30 -7 -39 -16 -39 -36 -194 -52 -310 -33 -41 6 -92 11
-114 10 -51 -2 -101 25 -116 61 -7 17 -19 28 -31 28 -11 0 -22 8 -25 19 -5 21
-42 32 -176 51 -87 13 -158 27 -256 52 -41 10 -95 18 -120 18 -25 0 -77 7
-116 16 -40 9 -130 17 -209 19 -84 2 -141 7 -145 14 -8 12 -111 37 -186 45
-27 3 -66 10 -85 16 -22 6 -96 8 -195 5 -187 -7 -492 -13 -865 -18 -146 -2
-289 -7 -317 -11 -44 -7 -53 -5 -53 7 0 9 -10 19 -22 23 -13 3 -30 12 -38 19
-16 14 -49 22 -123 30 -26 3 -60 11 -75 17 -27 10 -27 10 22 25 28 8 45 18 40
23 -8 8 -56 17 -102 19 -10 1 -9 6 4 18 13 13 19 14 22 5 2 -8 26 -12 70 -12
54 1 63 3 48 12 -12 7 -81 11 -175 12 -114 1 -155 4 -154 13 4 18 -62 25 -235
27 -28 1 -52 4 -52 9 0 4 -27 7 -59 7 -33 0 -62 4 -65 8 -7 12 137 33 148 22
5 -5 17 -1 28 10 26 24 75 32 139 24 46 -6 51 -5 47 12 -2 14 -13 20 -38 22
-19 2 -40 10 -47 19 -7 9 -17 12 -25 7 -7 -5 -101 -9 -208 -10 -107 0 -226 -4
-264 -9 -51 -6 -67 -5 -62 3 9 16 4 15 -30 -3 -16 -8 -47 -15 -69 -15 -40 1
-40 1 -15 15 14 8 48 17 77 20 28 4 54 13 57 20 2 7 22 16 43 20 21 4 44 12
51 17 7 6 49 17 95 24 45 7 109 18 142 24 79 16 132 24 305 49 160 22 250 41
250 52 0 11 -59 17 -149 15 -72 -1 -85 1 -89 16 -3 14 -19 17 -90 20 -100 3
-254 -7 -327 -22 -130 -26 -189 -33 -193 -22 -2 7 -10 12 -17 12 -7 0 -15 5
-17 10 -2 6 -20 2 -45 -10 -55 -26 -113 -27 -120 -1 -5 18 -13 19 -114 15 -69
-3 -117 0 -130 7 -11 6 -56 11 -99 11 -58 0 -82 4 -91 15 -11 12 -10 17 4 25
30 16 8 27 -42 21 -38 -4 -49 -2 -54 10 -5 13 4 17 41 23 26 4 59 13 73 20 15
7 29 11 32 8 3 -4 16 1 27 9 l22 15 -28 4 -29 4 28 14 c54 26 40 29 -203 32
-14 0 -79 -8 -145 -17 -66 -9 -131 -14 -144 -12 -14 3 -54 1 -90 -4 -41 -6
-121 -6 -214 0 -118 8 -160 7 -205 -4 -89 -21 -129 -27 -112 -15 8 5 25 10 37
10 12 0 28 6 35 13 7 8 25 16 38 19 87 20 183 49 230 72 30 14 65 26 78 26 12
0 22 5 22 10 0 6 -10 8 -22 5 -35 -8 -229 -35 -250 -35 -27 0 -22 19 7 26 14
3 22 10 19 15 -3 5 1 6 8 4 7 -3 63 6 123 20 137 33 278 61 418 85 60 10 114
23 120 29 6 6 21 11 34 11 13 0 23 5 23 11 0 7 -9 9 -22 5 -13 -3 -63 -9 -113
-12 -49 -3 -103 -9 -120 -14 -16 -5 -43 -11 -60 -14 -16 -2 -46 -10 -65 -16
-19 -6 -81 -13 -137 -16 -108 -4 -153 -14 -301 -63 -58 -19 -113 -31 -146 -31
-30 0 -56 -4 -58 -10 -1 -5 -13 -7 -25 -4 -13 4 -20 10 -17 15 7 12 -41 12
-64 0 -9 -5 -62 -18 -117 -30 -55 -12 -111 -24 -125 -27 -25 -5 -25 -5 -5 11
20 17 19 17 -7 11 -15 -3 -54 -9 -85 -12 -63 -6 -93 -11 -117 -20 -10 -4 -16
-1 -16 9 0 10 15 17 46 22 25 3 61 15 80 26 19 10 34 16 34 13 0 -3 12 4 26
15 15 12 37 21 50 21 13 0 47 9 76 21 29 12 82 30 118 41 36 11 97 31 135 44
39 13 99 30 135 39 36 9 83 25 105 35 45 22 161 60 180 60 8 0 26 6 42 14 15
8 80 29 143 47 63 17 140 40 170 50 30 10 129 41 220 69 91 28 185 58 210 66
75 24 221 64 295 80 38 9 77 19 85 24 8 5 51 15 95 24 77 16 198 49 240 67 11
4 72 18 135 29 63 12 152 30 197 41 45 11 106 24 135 29 29 5 83 13 120 19 36
6 77 15 90 20 28 12 144 33 338 61 80 11 190 27 245 36 55 8 116 14 136 14 51
0 162 36 196 63 15 12 48 32 73 45 25 12 60 35 79 52 18 16 37 30 41 30 3 0
13 11 20 25 7 13 16 24 19 23 25 -3 43 5 48 20 9 22 34 41 56 42 19 0 21 8 8
30 -16 25 -3 29 55 15 57 -13 97 -9 171 19 43 16 163 42 177 38 17 -5 46 10
46 25 0 17 38 74 57 86 25 15 64 62 69 83 3 12 16 27 29 34 15 8 27 28 34 56
15 58 58 154 69 154 5 0 20 -27 35 -60z m282 40 c-3 -5 -12 -10 -18 -10 -7 0
-6 4 3 10 19 12 23 12 15 0z m2925 -1760 c13 -8 13 -10 -2 -10 -9 0 -20 5 -23
10 -8 13 5 13 25 0z m85 -16 c26 -12 27 -14 5 -9 -14 2 -33 5 -42 5 -10 0 -18
5 -18 10 0 14 19 12 55 -6z m280 -64 c15 -6 8 -9 -29 -9 -45 -1 -48 -2 -41
-23 4 -13 7 -31 6 -40 0 -11 8 -18 19 -18 10 0 22 -5 26 -11 5 -9 -4 -10 -31
-5 -27 5 -40 4 -46 -6 -7 -10 -11 -10 -21 0 -9 9 -9 12 0 12 7 0 12 9 12 20 0
20 -14 27 -24 11 -3 -5 -25 1 -48 13 -39 19 -41 21 -18 24 37 5 50 22 16 22
-15 0 -25 4 -21 10 7 12 172 12 200 0z m-325 -30 c-14 -4 -38 -8 -55 -8 -25
-1 -27 1 -10 8 11 5 36 8 55 8 32 0 33 -1 10 -8z m65 0 c-3 -5 -10 -10 -16
-10 -5 0 -9 5 -9 10 0 6 7 10 16 10 8 0 12 -4 9 -10z m590 -14 c63 -18 18 -19
-50 -1 -32 8 -41 13 -25 14 14 0 48 -6 75 -13z m-800 -27 c28 -5 86 -10 130
-12 44 -1 86 -6 93 -11 8 -5 24 -3 39 5 16 9 29 10 39 4 15 -10 20 -24 9 -26
-27 -7 -274 18 -360 36 -107 24 -68 27 50 4z m452 -5 c-3 -3 -12 -4 -19 -1 -8
3 -5 6 6 6 11 1 17 -2 13 -5z m46 -11 c-7 -2 -19 -2 -25 0 -7 3 -2 5 12 5 14
0 19 -2 13 -5z m160 -4 c7 0 3 -4 -8 -9 -27 -12 -115 -12 -115 -1 0 10 73 20
98 14 8 -2 19 -3 25 -4z m-7719 -39 c-9 -9 -100 -30 -132 -30 -39 0 9 20 68
28 36 5 67 10 70 11 2 0 0 -3 -6 -9z m7761 -10 c-3 -5 -12 -7 -20 -3 -21 7
-19 13 6 13 11 0 18 -4 14 -10z m-7401 -60 c-12 -5 -25 -13 -29 -19 -3 -6 -17
-11 -31 -11 -13 0 -24 -4 -24 -9 0 -5 -9 -11 -20 -14 -11 -3 -20 -1 -20 5 0
12 -53 2 -94 -18 -15 -7 -44 -16 -65 -20 -20 -3 -58 -12 -86 -19 -75 -20 -117
-26 -111 -16 5 8 91 33 126 36 8 1 74 20 145 43 150 47 160 49 200 50 27 1 28
0 9 -8z m116 -31 c0 -12 -37 -12 -44 0 -7 11 14 20 32 13 6 -2 12 -8 12 -13z
m6864 -28 c11 -4 15 -10 9 -14 -5 -3 -19 0 -29 8 -20 15 -11 18 20 6z m-6219
-331 c-3 -5 -10 -10 -16 -10 -5 0 -9 5 -9 10 0 6 7 10 16 10 8 0 12 -4 9 -10z
m5140 -90 c3 -5 -1 -10 -9 -10 -9 0 -16 5 -16 10 0 6 4 10 9 10 6 0 13 -4 16
-10z"/>
<path d="M6300 4029 c-30 -4 -114 -28 -186 -53 -72 -25 -145 -46 -162 -46 -17
0 -79 18 -139 39 -59 22 -130 45 -156 52 -105 26 -259 -11 -375 -90 -249 -169
-333 -528 -217 -930 61 -214 183 -435 321 -580 122 -130 198 -144 401 -73 167
58 224 59 391 3 190 -64 274 -55 378 41 57 53 146 168 203 264 39 66 111 225
111 244 0 4 -24 21 -52 38 -62 34 -153 125 -187 185 -42 74 -61 151 -61 251 0
174 66 307 197 397 24 17 43 35 43 40 0 22 -127 135 -180 161 -102 49 -233 72
-330 57z"/>
<path d="M6840 3851 c0 -6 4 -13 10 -16 6 -3 7 1 4 9 -7 18 -14 21 -14 7z"/>
<path d="M2333 2873 c-21 -8 -15 -22 7 -16 11 3 20 9 20 14 0 10 -8 10 -27 2z"/>
<path d="M1455 2790 c-15 -7 -9 -9 25 -9 33 -1 41 2 30 9 -18 12 -28 12 -55 0z"/>
<path d="M4015 2599 c-13 -5 2 -8 45 -8 36 0 71 3 79 8 18 11 -96 12 -124 0z"/>
<path d="M3075 2593 c-16 -3 -34 -9 -39 -14 -6 -5 -21 -9 -34 -9 -13 0 -50 -7
-82 -15 -31 -8 -73 -16 -93 -17 -23 -2 -32 -6 -26 -13 11 -11 146 7 209 29 25
9 59 16 75 17 30 0 81 17 58 18 -6 1 -17 3 -25 4 -7 2 -26 2 -43 0z"/>
<path d="M3765 2590 c-4 -6 8 -10 30 -10 22 0 34 4 30 10 -3 6 -17 10 -30 10
-13 0 -27 -4 -30 -10z"/>
<path d="M3938 2593 c6 -2 18 -2 25 0 6 3 1 5 -13 5 -14 0 -19 -2 -12 -5z"/>
<path d="M3693 2533 c9 -2 23 -2 30 0 6 3 -1 5 -18 5 -16 0 -22 -2 -12 -5z"/>
<path d="M2695 2515 c-25 -11 -27 -14 -9 -14 12 -1 27 6 34 14 15 18 14 18
-25 0z"/>
<path d="M3358 2503 c6 -2 18 -2 25 0 6 3 1 5 -13 5 -14 0 -19 -2 -12 -5z"/>
<path d="M4985 2391 c-34 -11 -87 -42 -81 -48 3 -3 1 -14 -5 -24 -8 -16 -6
-19 11 -19 12 0 29 -4 38 -9 20 -10 101 1 195 28 86 24 98 34 69 61 -18 17
-34 20 -114 19 -51 -1 -102 -4 -113 -8z"/>
<path d="M8500 2391 c0 -9 75 -31 105 -31 15 0 24 -4 20 -9 -8 -14 48 -28 157
-40 136 -15 181 -13 98 5 -36 7 -81 22 -100 33 -52 29 -147 50 -217 49 -35 0
-63 -4 -63 -7z"/>
<path d="M3556 2282 c-3 -5 8 -6 25 -4 16 2 29 6 29 8 0 8 -49 4 -54 -4z"/>
<path d="M7413 2234 c-23 -10 -31 -19 -28 -33 2 -14 -4 -21 -21 -25 -17 -5
-24 -12 -22 -24 2 -9 10 -16 17 -14 7 1 18 -1 25 -6 21 -17 87 -23 182 -16 52
4 94 11 94 15 0 5 -9 9 -20 9 -11 0 -20 5 -20 10 0 6 6 10 14 10 20 0 14 30
-9 46 -10 8 -35 14 -54 14 -20 1 -47 7 -61 15 -31 18 -56 17 -97 -1z"/>
<path d="M6805 2223 c-11 -3 -25 -9 -30 -13 -22 -18 -149 -20 -192 -4 -29 12
-56 14 -87 10 -45 -7 -45 -8 -39 -39 7 -37 14 -43 66 -59 28 -8 46 -8 75 1 20
6 112 13 205 15 92 2 170 6 173 9 9 9 -16 30 -66 54 -54 26 -78 32 -105 26z
m-245 -73 c0 -5 -12 -10 -27 -9 l-28 1 25 8 c14 4 26 8 28 9 1 1 2 -3 2 -9z"/>
<path d="M3825 2200 c-16 -7 -13 -9 18 -9 20 -1 37 4 37 9 0 12 -27 12 -55 0z"/>
<path d="M7100 2199 c0 -5 19 -9 42 -9 49 0 47 5 -4 13 -21 3 -38 2 -38 -4z"/>
<path d="M7148 2153 c7 -3 16 -2 19 1 4 3 -2 6 -13 5 -11 0 -14 -3 -6 -6z"/>
<path d="M7300 2140 c0 -5 5 -10 10 -10 6 0 10 5 10 10 0 6 -4 10 -10 10 -5 0
-10 -4 -10 -10z"/>
<path d="M4223 2023 c9 -2 25 -2 35 0 9 3 1 5 -18 5 -19 0 -27 -2 -17 -5z"/>
<path d="M4168 1993 c6 -2 18 -2 25 0 6 3 1 5 -13 5 -14 0 -19 -2 -12 -5z"/>
<path d="M4253 1953 c9 -2 25 -2 35 0 9 3 1 5 -18 5 -19 0 -27 -2 -17 -5z"/>
<path d="M6657 1824 c-11 -11 3 -24 18 -18 8 4 12 10 9 15 -6 11 -18 12 -27 3z"/>
</g>
</svg>
